<svg xmlns="http://www.w3.org/2000/svg" viewBox="0 0 170.807 154.487"><defs><style>.a{fill:#ebe8e8;}.a,.b,.c{stroke:#707070;}.b,.e{fill:none;}.c{fill:#95a69c;}.d{stroke:none;}</style></defs><g transform="translate(-84.967 -44.513)"><path class="a" d="M-837.51-841.122c-18.46-43.5,13.966-98.359,13.966-98.359l28.243,48.354" transform="translate(947.5 984.982)"/><path class="a" d="M-801.066-841.479c18.459-43.5-13.876-98-13.876-98l-28.242,48.354" transform="translate(1031.383 984.982)"/><path class="a" d="M954.645,1367.223c-9.171-2.6-14.943-5.559-15.375-5.462s.914-.406,8.555-3.846c-.133-.231-.264-.462-.393-.7a22.354,22.354,0,0,1-7.137-1.831c-4.306-1.987-7.659-5.291-8.371-5.735.847.082,5.339-.133,11-3.468q-.2-.725-.373-1.456a18.862,18.862,0,0,1-4.226-.812,21.9,21.9,0,0,1-8.415-5.159c1.344.125,5.851-.608,11.34-6.759.89-28.855,27.4-52,59.977-52s59.087,23.145,59.977,52c5.49,6.153,10,6.886,11.343,6.761a21.914,21.914,0,0,1-8.417,5.159,18.879,18.879,0,0,1-4.228.812c-.117.488-.241.972-.373,1.455,5.664,3.335,10.155,3.55,11,3.469-.712.444-4.066,3.748-8.372,5.735a22.361,22.361,0,0,1-7.139,1.831c-.13.233-.26.464-.393.695,7.642,3.44,9,3.946,8.556,3.846s-6.2,2.86-15.377,5.462c-11,12.066-27.782,19.776-46.582,19.776S965.646,1379.29,954.645,1367.223Zm116.012-17.617c.05.016.006.036-.124.049C1070.595,1349.616,1070.636,1349.6,1070.657,1349.606Zm-138.858,0c.021-.007.063.01.124.049C931.793,1349.642,931.748,1349.622,931.8,1349.606Zm141.132-11.027c.088.067-.05.15-.383.181C1072.738,1338.593,1072.856,1338.523,1072.931,1338.579Zm-143.4,0c.074-.056.192.014.383.181C929.577,1338.729,929.437,1338.646,929.526,1338.579Z" transform="translate(-831.227 -1188.5)"/><path class="b" d="M962.271,1305.364l-29.672,5.531Zm-.967-9.093.067,0Zm-.014,0h0Zm0,0h0Zm-15.855-1.05-15.506-1.028,31.36,2.079Zm-15.511-1.029h.005Zm-.125-.008.125.008Zm-.01,0h.01Zm-.026,0,.026,0Zm-.018,0h.018Zm-.047,0,.047,0Zm-.1-.006.1.006Zm-.013,0h0Zm-.088-.006.088.006Zm2-14.163,31.87,9.344Z" transform="translate(-844.5 -1133.5)"/><path class="b" d="M930.6,1305.364l29.672,5.531Zm.967-9.093-.067,0Zm.014,0h0Zm0,0h0Zm15.855-1.05,15.506-1.028-31.361,2.079Zm15.511-1.029h-.005Zm.125-.008-.125.008Zm.01,0h-.01Zm.026,0-.026,0Zm.018,0h-.018Zm.047,0-.047,0Zm.1-.006-.1.006Zm.013,0h0Zm.088-.006-.088.006Zm-2-14.163-31.87,9.344Z" transform="translate(-707.63 -1133.5)"/><g class="c" transform="translate(139.846 128)"><ellipse class="d" cx="6" cy="14.395" rx="6" ry="14.395"/><ellipse class="e" cx="6" cy="14.395" rx="5.5" ry="13.895"/></g><g class="c" transform="translate(188.264 128)"><ellipse class="d" cx="6" cy="14.395" rx="6" ry="14.395"/><ellipse class="e" cx="6" cy="14.395" rx="5.5" ry="13.895"/></g></g></svg>